<svg xmlns="http://www.w3.org/2000/svg" xml:space="preserve" id="Layer_1" width="100%" height="256" x="0" y="0" fill="#20b2a6" viewBox="0 0 256 256"><path d="M202.146 189.09c-20.335 25.81-46.657 38.58-79.07 35.89-31.836-2.643-55.856-19.058-70.842-47.184-17.306-32.48-16.023-65.031 3.507-96.284 25.608-40.98 80.534-52.945 121.13-26.799 46.8 30.143 57.18 91.023 25.275 134.378M79.637 71.138c-35.724 31.696-34.01 82.52-14.803 106.998 22.116-29.757 43.64-59.803 66.384-89.187 2.223 2.294 1.732 4.227 1.754 5.982.075 5.998.06 11.999.014 17.998-.18 23.313-.486 46.626-.495 69.939-.001 4.648-2.377 5.103-5.951 5.066-3.577-.037-6.275-.587-5.89-5.19.263-3.145-.248-6.361.099-9.489.555-5.006-1.633-6.356-6.29-6.085-5.647.329-11.33.126-16.994.039-1.744-.027-3.71.464-5.09-1.212 3.884-8.852 5.927-10.269 14.695-10.264 3.333.002 6.666-.029 9.999-.032 2.144-.002 3.556-.82 3.558-3.183.008-9.245.003-18.49.003-28.757-1.861 2.239-3.08 3.568-4.15 5.009-12.708 17.123-25.4 34.26-38.087 51.4-7.434 10.044-7.482 10.111 2.05 18.562 34.937 30.97 83.395 25.82 111.8-4.221 26.544-28.073 30.815-66.162 12.601-100.381-24.27-45.598-85.555-57.134-125.207-22.992"/><path d="M151.62 150.38c-2.95-3.168-5.648-6.09-8.087-8.731-4.08 1.118-5.046 4.98-8.236 5.815-2.481-4.76-1.623-13.312 1.59-17.098 11.52-13.576 23.038-27.154 34.506-40.773 5.066-6.016 10.936-7.535 19.126-4.562-1.606 3.754-4.725 6.308-7.23 9.27-9.562 11.306-19.117 22.622-28.963 33.68-3.118 3.502-3.04 5.536.377 8.87 13.7 13.362 27.07 27.066 40.547 40.658 1.03 1.039 2.273 1.96 2.608 3.527-6.366 2.883-14.334 1.563-18.936-3.085a80245 80245 0 0 0-27.302-27.57"/></svg>